<svg xmlns="http://www.w3.org/2000/svg" width="512" height="512" viewBox="0 0 512 512"><metadata><rdf:RDF xmlns:rdf="http://www.w3.org/1999/02/22-rdf-syntax-ns#" xmlns:dc="http://purl.org/dc/elements/1.1/"><rdf:Description><dc:creator>RealFaviconGenerator</dc:creator><dc:source>https://realfavicongenerator.net</dc:source></rdf:Description></rdf:RDF></metadata><defs>
<linearGradient id="bg" x1="0" y1="0" x2="1" y2="1">
<stop offset="0%" stop-color="#FF6B9D"></stop>
<stop offset="100%" stop-color="#C84B8A"></stop>
</linearGradient>
<clipPath id="rr"><rect width="512" height="512" rx="96"></rect></clipPath>
</defs><g clip-path="url(#rr)">
<rect width="512" height="512" fill="url(#bg)"></rect>
<rect x="36" y="36" width="440" height="440" rx="76" fill="none" stroke="rgba(255,255,255,.1)" stroke-width="2.5"></rect>
<text x="256" y="208" text-anchor="middle" font-family="'Fredoka One','Nunito',sans-serif" font-size="82" font-weight="900" fill="#fff" letter-spacing="1">Mini</text>
<text x="256" y="310" text-anchor="middle" font-family="'Fredoka One','Nunito',sans-serif" font-size="100" font-weight="900" fill="#fff" letter-spacing="2">Grid</text>
<text x="256" y="310" text-anchor="middle" font-family="'Fredoka One','Nunito',sans-serif" font-size="100" font-weight="900" fill="none" stroke="rgba(255,255,255,.25)" stroke-width="2.5" letter-spacing="2">Grid</text>
<g transform="translate(48,44) scale(.62)"><ellipse cx="40" cy="44" rx="28" ry="24" fill="#E53935"></ellipse><line x1="40" y1="20" x2="40" y2="68" stroke="#222" stroke-width="2"></line><circle cx="30" cy="36" r="4" fill="#222"></circle><circle cx="50" cy="36" r="4" fill="#222"></circle><circle cx="32" cy="54" r="3.5" fill="#222"></circle><circle cx="48" cy="54" r="3.5" fill="#222"></circle><ellipse cx="40" cy="24" rx="14" ry="10" fill="#222"></ellipse><circle cx="34" cy="22" r="3" fill="#fff"></circle><circle cx="46" cy="22" r="3" fill="#fff"></circle><circle cx="34" cy="22" r="1.5" fill="#222"></circle><circle cx="46" cy="22" r="1.5" fill="#222"></circle><path d="M28 16 Q26 6 22 4" stroke="#222" stroke-width="2" fill="none" stroke-linecap="round"></path><path d="M52 16 Q54 6 58 4" stroke="#222" stroke-width="2" fill="none" stroke-linecap="round"></path><circle cx="22" cy="3" r="2.5" fill="#222"></circle><circle cx="58" cy="3" r="2.5" fill="#222"></circle></g>
<g transform="translate(422,40) scale(.58)"><ellipse cx="40" cy="40" rx="22" ry="18" fill="#42A5F5"></ellipse><ellipse cx="40" cy="32" rx="14" ry="12" fill="#64B5F6"></ellipse><circle cx="35" cy="30" r="3" fill="#fff"></circle><circle cx="45" cy="30" r="3" fill="#fff"></circle><circle cx="35" cy="30" r="1.5" fill="#222"></circle><circle cx="45" cy="30" r="1.5" fill="#222"></circle><polygon points="28,35 18,33 28,38" fill="#FF9800"></polygon><path d="M52 28 Q68 18 62 32" fill="#42A5F5"></path><ellipse cx="36" cy="56" rx="5" ry="3" fill="#FF9800"></ellipse><ellipse cx="44" cy="56" rx="5" ry="3" fill="#FF9800"></ellipse></g>
<g transform="translate(24,215) scale(.48)"><ellipse cx="40" cy="40" rx="22" ry="26" fill="#795548"></ellipse><circle cx="30" cy="32" r="10" fill="#fff"></circle><circle cx="50" cy="32" r="10" fill="#fff"></circle><circle cx="30" cy="32" r="5" fill="#FF9800"></circle><circle cx="50" cy="32" r="5" fill="#FF9800"></circle><circle cx="30" cy="32" r="2.5" fill="#222"></circle><circle cx="50" cy="32" r="2.5" fill="#222"></circle><polygon points="40,40 36,46 44,46" fill="#FF9800"></polygon><path d="M22 18 L18 6 L28 16" fill="#795548"></path><path d="M58 18 L62 6 L52 16" fill="#795548"></path><path d="M24 50 Q40 58 56 50" fill="#6D4C41"></path></g>
<g transform="translate(444,210) scale(.48)"><ellipse cx="40" cy="40" rx="20" ry="22" fill="#66BB6A"></ellipse><circle cx="32" cy="32" r="4" fill="#fff"></circle><circle cx="48" cy="32" r="4" fill="#fff"></circle><circle cx="32" cy="32" r="2" fill="#222"></circle><circle cx="48" cy="32" r="2" fill="#222"></circle><path d="M36 44 Q40 48 44 44" stroke="#2E7D32" stroke-width="1.5" fill="none" stroke-linecap="round"></path><path d="M28 16 L24 4 L32 12 L36 2 L38 14" fill="#FF9800"></path><path d="M42 14 L44 2 L48 12 L56 4 L52 16" fill="#FF9800"></path><path d="M58 38 Q68 36 72 42 Q68 48 58 44" fill="#66BB6A"></path><ellipse cx="18" cy="52" rx="4" ry="6" fill="#66BB6A" transform="rotate(-20,18,52)"></ellipse><ellipse cx="62" cy="52" rx="4" ry="6" fill="#66BB6A" transform="rotate(20,62,52)"></ellipse></g>
<g transform="translate(44,412) scale(.58)"><circle cx="40" cy="35" r="20" fill="#8D6E63"></circle><circle cx="18" cy="28" r="10" fill="#A1887F"></circle><circle cx="18" cy="28" r="6" fill="#FFCCBC"></circle><circle cx="62" cy="28" r="10" fill="#A1887F"></circle><circle cx="62" cy="28" r="6" fill="#FFCCBC"></circle><ellipse cx="40" cy="40" rx="14" ry="10" fill="#FFCCBC"></ellipse><circle cx="33" cy="30" r="3" fill="#fff"></circle><circle cx="47" cy="30" r="3" fill="#fff"></circle><circle cx="33" cy="30" r="1.5" fill="#222"></circle><circle cx="47" cy="30" r="1.5" fill="#222"></circle><ellipse cx="37" cy="42" rx="2" ry="1.5" fill="#8D6E63"></ellipse><ellipse cx="43" cy="42" rx="2" ry="1.5" fill="#8D6E63"></ellipse><path d="M35 47 Q40 52 45 47" stroke="#8D6E63" stroke-width="1.5" fill="none" stroke-linecap="round"></path></g>
<g transform="translate(420,414) scale(.58)"><ellipse cx="40" cy="40" rx="24" ry="16" fill="#EF5350"></ellipse><circle cx="32" cy="34" r="3.5" fill="#fff"></circle><circle cx="48" cy="34" r="3.5" fill="#fff"></circle><circle cx="32" cy="34" r="2" fill="#222"></circle><circle cx="48" cy="34" r="2" fill="#222"></circle><path d="M34 44 Q40 48 46 44" stroke="#C62828" stroke-width="1.5" fill="none" stroke-linecap="round"></path><path d="M16 36 Q8 28 12 22" stroke="#EF5350" stroke-width="4" fill="none" stroke-linecap="round"></path><path d="M12 22 Q8 18 14 16" stroke="#EF5350" stroke-width="3" fill="none" stroke-linecap="round"></path><path d="M12 22 Q16 18 12 14" stroke="#EF5350" stroke-width="3" fill="none" stroke-linecap="round"></path><path d="M64 36 Q72 28 68 22" stroke="#EF5350" stroke-width="4" fill="none" stroke-linecap="round"></path><path d="M68 22 Q72 18 66 16" stroke="#EF5350" stroke-width="3" fill="none" stroke-linecap="round"></path><path d="M68 22 Q64 18 68 14" stroke="#EF5350" stroke-width="3" fill="none" stroke-linecap="round"></path><ellipse cx="30" cy="54" rx="5" ry="3" fill="#C62828"></ellipse><ellipse cx="40" cy="56" rx="5" ry="3" fill="#C62828"></ellipse><ellipse cx="50" cy="54" rx="5" ry="3" fill="#C62828"></ellipse></g>
<g transform="translate(232,430) scale(.48)"><ellipse cx="40" cy="28" rx="20" ry="18" fill="#7C4DFF"></ellipse><circle cx="32" cy="24" r="4" fill="#fff"></circle><circle cx="48" cy="24" r="4" fill="#fff"></circle><circle cx="32" cy="24" r="2" fill="#222"></circle><circle cx="48" cy="24" r="2" fill="#222"></circle><path d="M36 34 Q40 38 44 34" stroke="#4A148C" stroke-width="1.5" fill="none" stroke-linecap="round"></path><path d="M20 42 Q14 56 18 64" stroke="#7C4DFF" stroke-width="3.5" fill="none" stroke-linecap="round"></path><path d="M28 44 Q24 58 28 66" stroke="#7C4DFF" stroke-width="3.5" fill="none" stroke-linecap="round"></path><path d="M52 44 Q56 58 52 66" stroke="#7C4DFF" stroke-width="3.5" fill="none" stroke-linecap="round"></path><path d="M60 42 Q66 56 62 64" stroke="#7C4DFF" stroke-width="3.5" fill="none" stroke-linecap="round"></path></g>
<circle cx="170" cy="56" r="3" fill="rgba(255,255,255,.45)"></circle>
<circle cx="340" cy="72" r="2" fill="rgba(255,255,255,.35)"></circle>
<circle cx="130" cy="380" r="2.5" fill="rgba(255,255,255,.3)"></circle>
<circle cx="380" cy="390" r="2" fill="rgba(255,255,255,.3)"></circle>
<circle cx="256" cy="360" r="2" fill="rgba(255,255,255,.2)"></circle>
<circle cx="88" cy="140" r="2" fill="rgba(255,255,255,.25)"></circle>
<circle cx="424" cy="140" r="1.5" fill="rgba(255,255,255,.2)"></circle>
<circle cx="190" cy="440" r="1.5" fill="rgba(255,255,255,.2)"></circle>
<circle cx="320" cy="450" r="2" fill="rgba(255,255,255,.25)"></circle>
</g></svg>